<svg id="Layer_1" viewBox="0 0 24 24" xmlns="http://www.w3.org/2000/svg" data-name="Layer 1"><path d="m20 13.5v5c0 3.032-2.468 5.5-5.5 5.5h-9c-3.032 0-5.5-2.468-5.5-5.5v-13c0-3.033 2.468-5.5 5.5-5.5h8c.828 0 1.5.671 1.5 1.5s-.672 1.5-1.5 1.5h-8c-1.379 0-2.5 1.122-2.5 2.5v13c0 1.379 1.121 2.5 2.5 2.5h9c1.379 0 2.5-1.121 2.5-2.5v-5c0-.829.672-1.5 1.5-1.5s1.5.671 1.5 1.5zm3.512-12.651c-.875-1.07-2.456-1.129-3.409-.176l-5.808 5.808c-.813.813-1.269 1.915-1.269 3.064v.955c0 .276.224.5.5.5h.955c1.149 0 2.252-.457 3.064-1.269l5.715-5.715c.85-.85 1.013-2.236.252-3.167zm-15.008 13.61-1.263 1.229-.222-.205c-.608-.563-1.558-.527-2.12.081-.563.607-.527 1.557.081 2.12l.737.681c.409.41.954.636 1.533.636s1.124-.226 1.509-.612l1.821-1.763c.598-.572.619-1.522.046-2.12-.574-.599-1.522-.619-2.121-.046zm2.121-5.954c-.574-.599-1.522-.619-2.121-.046l-1.263 1.229-.222-.205c-.608-.563-1.558-.527-2.12.081-.563.607-.527 1.557.081 2.12l.737.681c.409.41.954.636 1.533.636s1.124-.226 1.509-.612l1.821-1.763c.598-.572.619-1.522.046-2.12zm2.875 10.496c.828 0 1.5-.671 1.5-1.5s-.672-1.5-1.5-1.5h-.083c-.829 0-1.458.671-1.458 1.5s.713 1.5 1.542 1.5z"/></svg>